<?xml version="1.0" encoding="UTF-8"?>
<svg width="192px" height="130px" viewBox="0 0 192 130" version="1.1" xmlns="http://www.w3.org/2000/svg" xmlns:xlink="http://www.w3.org/1999/xlink">
    <!-- Generator: Sketch 46.2 (44496) - http://www.bohemiancoding.com/sketch -->
    <title>Artboard 2</title>
    <desc>Created with Sketch.</desc>
    <defs></defs>
    <g id="Page-1" stroke="none" stroke-width="1" fill="none" fill-rule="evenodd">
        <g id="Artboard-2" fill-rule="nonzero">
            <g id="Group" transform="translate(13.000000, 0.000000)">
                <g id="ux-design-copy-10" fill="#FFFFFF">
                    <path d="M12.3203125,15.6 C13.1719271,15.6 14.0105729,15.2533333 14.6114583,14.6466667 C15.2166667,14.0443333 15.5625,13.2036667 15.5625,12.35 C15.5625,11.4963333 15.2166667,10.6556667 14.6114583,10.0533333 C14.0105729,9.44666667 13.17625,9.1 12.3203125,9.1 C11.464375,9.1 10.6300521,9.44666667 10.0291667,10.0533333 C9.42395833,10.6556667 9.078125,11.4963333 9.078125,12.35 C9.078125,13.2036667 9.42395833,14.0443333 10.0291667,14.6466667 C10.6300521,15.2533333 11.4686979,15.6 12.3203125,15.6 Z" id="Shape"></path>
                    <path d="M21.3984375,15.6 C22.254375,15.6 23.0886979,15.2533333 23.6895833,14.6466667 C24.2947917,14.0443333 24.640625,13.2036667 24.640625,12.35 C24.640625,11.4963333 24.2947917,10.6556667 23.6895833,10.0533333 C23.0886979,9.44666667 22.2500521,9.1 21.3984375,9.1 C20.5468229,9.1 19.7081771,9.44666667 19.1072917,10.0533333 C18.5020833,10.6556667 18.15625,11.4963333 18.15625,12.35 C18.15625,13.2036667 18.5020833,14.0443333 19.1072917,14.6466667 C19.7081771,15.2533333 20.5468229,15.6 21.3984375,15.6 Z" id="Shape"></path>
                    <path d="M30.4765625,15.6 C31.3281771,15.6 32.1668229,15.2533333 32.7677083,14.6466667 C33.3729167,14.0443333 33.71875,13.2036667 33.71875,12.35 C33.71875,11.4963333 33.3729167,10.6556667 32.7677083,10.0533333 C32.1668229,9.44666667 31.3281771,9.1 30.4765625,9.1 C29.6249479,9.1 28.7863021,9.44666667 28.1854167,10.0533333 C27.5802083,10.6556667 27.234375,11.4963333 27.234375,12.35 C27.234375,13.2036667 27.5802083,14.0443333 28.1854167,14.6466667 C28.7863021,15.2533333 29.6249479,15.6 30.4765625,15.6 Z" id="Shape"></path>
                    <path d="M38.7212725,15.6 L136.356852,15.6 C137.687137,15.6 138.765625,14.1448667 138.765625,12.35 C138.765625,10.5551333 137.687137,9.1 136.356852,9.1 L38.7212725,9.1 C37.3909878,9.1 36.3125,10.5551333 36.3125,12.35 C36.3125,14.1448667 37.3909878,15.6 38.7212725,15.6 Z" id="Shape"></path>
                    <path d="M148.073841,15.6 L154.098034,15.6 C155.657547,15.6 156.921875,14.1448667 156.921875,12.35 C156.921875,10.5551333 155.657547,9.1 154.098034,9.1 L148.073841,9.1 C146.514328,9.1 145.25,10.5551333 145.25,12.35 C145.25,14.1448667 146.514328,15.6 148.073841,15.6 Z" id="Shape"></path>
                    <path d="M153.168297,0 L12.8317025,0 C5.75639922,0 0,5.77343358 0,12.8696742 L0,117.130326 C0,124.226566 5.75639922,130 12.8317025,130 L153.168297,130 C160.243601,130 166,124.226566 166,117.130326 L166,12.8696742 C166,5.77343358 160.243601,0 153.168297,0 Z M12.8317025,4.88721805 L153.168297,4.88721805 C157.55674,4.88721805 161.127202,8.46824561 161.127202,12.8696742 L161.127202,20.8521303 L4.87279843,20.8521303 L4.87279843,12.8696742 C4.87279843,8.46824561 8.44326027,4.88721805 12.8317025,4.88721805 Z M153.168297,125.112782 L12.8317025,125.112782 C8.44326027,125.112782 4.87279843,121.531754 4.87279843,117.130326 L4.87279843,25.7393484 L161.127202,25.7393484 L161.127202,117.130326 C161.127202,121.531754 157.55674,125.112782 153.168297,125.112782 Z" id="Shape"></path>
                </g>
                <g id="cogwheel-copy" transform="translate(51.000000, 39.000000)" stroke="#FFFFFF">
                    <path d="M35.3950005,58.7900009 C22.4947987,58.7900009 12,48.2952022 12,35.3950005 C12,22.4947987 22.4947987,12 35.3950005,12 C48.2952022,12 58.7900009,22.4947987 58.7900009,35.3950005 C58.7900009,48.2952022 48.2952022,58.7900009 35.3950005,58.7900009 Z" id="Shape" stroke-width="3"></path>
                    <path d="M64.3294039,34.9997591 C64.3294039,33.8200299 64.2584132,32.6354834 64.1183569,31.4658702 L70,29.5532058 L66.5154375,18.8149718 L60.6270562,20.7285996 C59.4753217,18.6579315 58.0843844,16.7430994 56.4792717,15.0134881 L60.1183294,10.0031312 L50.9925296,3.3655282 L47.353472,8.37733031 C45.2090703,7.37824558 42.9587841,6.64531047 40.6406356,6.19153138 L40.6406356,0 L29.360327,0 L29.360327,6.19153138 C27.0421785,6.64434703 24.7918923,7.37824558 22.6474906,8.37733031 L19.0096362,3.3667325 L9.88263322,10.0031312 L13.5216909,15.013729 C11.9165781,16.7423768 10.5256409,18.6581724 9.37390635,20.7288405 L3.48672834,18.8152127 L0.00120323291,29.5534467 L5.88380895,31.4661111 C5.74279006,32.6357243 5.67179931,33.8200299 5.67179931,35 C5.67179931,36.1799701 5.74279006,37.3642757 5.88284637,38.5338889 L0,40.4463124 L3.48552511,51.1845465 L9.37270311,49.2709186 C10.5244377,51.3415868 11.9153749,53.2564189 13.5204876,54.9860302 L9.88263322,59.996628 L19.0084329,66.6342309 L22.6462873,61.6236331 C24.790689,62.6227179 27.0409752,63.355653 29.3591238,63.8094321 L29.3591238,70 L40.6394323,70 L40.6394323,63.8084686 C42.9575809,63.355653 45.2078671,62.6217544 47.3522688,61.6226697 L50.9901232,66.6332675 L60.1159229,59.9956645 L56.4768653,54.9850667 C58.081978,53.2564189 59.4729152,51.3406233 60.6246498,49.2699552 L66.513031,51.183583 L69.9975935,40.445349 L64.1159504,38.5326846 C64.2581725,37.3640349 64.3294039,36.1797293 64.3294039,34.9997591 Z M67.1584451,41.8948408 L65.0669857,48.3392745 L59.515991,46.5328291 L59.076089,47.3864348 C57.8001808,49.8658413 56.1635434,52.120526 54.2121403,54.0895515 L53.5354421,54.7714244 L56.9668217,59.4987716 L51.49139,63.4808999 L48.0600104,58.7525892 L47.2028273,59.1873404 C44.721039,60.4451081 42.073686,61.3064213 39.333684,61.7491209 L38.3850552,61.9003806 L38.3850552,67.7419433 L31.61687,67.7419433 L31.61687,61.9003806 L30.6682412,61.7467123 C27.9282392,61.3042536 25.2808861,60.4439038 22.7990979,59.1849318 L21.9416741,58.7501806 L18.5102945,63.4784913 L13.0348628,59.496363 L16.4662424,54.7690158 L15.7893036,54.0871429 C13.8379005,52.1193217 12.2010224,49.864637 10.9253549,47.3840262 L10.4854529,46.5304205 L4.93445818,48.3368659 L2.84299873,41.8924322 L8.38845859,40.0893588 L8.24286741,39.1408546 C8.03422682,37.7804808 7.92810168,36.3871092 7.92810168,34.9995183 C7.92810168,33.6119274 8.03422682,32.2187967 8.24286741,30.85481 L8.38845859,29.9063057 L2.84299873,28.1032323 L4.93445818,21.6587986 L10.4854529,23.465244 L10.9253549,22.6116383 C12.2007818,20.1327135 13.8376598,17.8780288 15.789063,15.9090033 L16.4660018,15.2271304 L13.0343815,10.5000241 L18.5098132,6.51789585 L21.9411929,11.2462065 L22.7986166,10.8114553 C25.2804048,9.55368756 27.9277579,8.69237439 30.6677599,8.24967484 L31.6163887,8.09961944 L31.6163887,2.25805675 L38.3845739,2.25805675 L38.3845739,8.09961944 L39.3332027,8.25304687 C42.0732047,8.69574642 44.7205578,9.55585529 47.202346,10.8148273 L48.0595291,11.2495785 L51.4909087,6.52126788 L56.9663404,10.5033961 L53.5349608,15.2307433 L54.211659,15.9126162 C56.1630621,17.8804374 57.7999402,20.1351221 59.0756077,22.6157329 L59.5155097,23.4693386 L65.0665044,21.6628932 L67.1579639,28.1073269 L61.6115414,29.9104003 L61.7571326,30.8589046 C61.9669764,32.2192784 62.0731016,33.6126499 62.0731016,35.0002409 C62.0731016,36.3878318 61.9669764,37.7809625 61.7583358,39.1449492 L61.6127446,40.0934534 L67.1584451,41.8948408 Z" id="Shape" fill="#FFFFFF"></path>
                    <path d="M43.0219221,21.7145879 L39.8295274,23.8671031 L41.0445556,25.7569516 L46.185567,22.2906199 L45.4399601,15.8762887 L43.246264,16.143301 L43.632971,19.4703324 C36.8374381,15.5467481 28.1196816,16.6263857 22.4727226,22.4115721 C16.2427575,28.7942772 15.5798649,39.0141375 20.9306077,46.185567 L22.6857532,44.8106708 C18.0042656,38.536847 18.5853865,29.5955555 24.035575,24.0117147 C29.1056548,18.8175284 37.0137067,17.9474448 43.0219221,21.7145879 Z" id="Shape" fill="#FFFFFF"></path>
                    <path d="M47.3161488,25.9107372 C51.9978274,32.1845611 51.4166828,41.1258525 45.9662718,46.7096934 C40.8936285,51.9050868 32.9852537,52.7754118 26.9770288,49.0080273 L30.170732,46.8545463 L28.9556542,44.9646978 L23.814433,48.4310296 L24.5600703,54.8453608 L26.753856,54.5783485 L26.3671332,51.2568697 C29.0569893,52.8094522 32.0440162,53.5892441 35.0277439,53.5892441 C39.5824002,53.5892441 44.1170252,51.8046554 47.527067,48.3100773 C53.7572864,41.9273723 54.4202061,31.7075119 49.0692449,24.5360825 L47.3161488,25.9107372 Z" id="Shape" fill="#FFFFFF"></path>
                </g>
            </g>
        </g>
    </g>
</svg>