<?xml version="1.0" encoding="UTF-8"?>
<svg width="192px" height="130px" viewBox="0 0 192 130" version="1.1" xmlns="http://www.w3.org/2000/svg" xmlns:xlink="http://www.w3.org/1999/xlink">
    <!-- Generator: Sketch 46.2 (44496) - http://www.bohemiancoding.com/sketch -->
    <title>Artboard 2</title>
    <desc>Created with Sketch.</desc>
    <defs></defs>
    <g id="Page-1" stroke="none" stroke-width="1" fill="none" fill-rule="evenodd">
        <g id="Artboard-2" fill-rule="nonzero">
            <g id="Group-2-Copy" transform="translate(13.000000, 0.000000)">
                <g id="ux-design-copy-3" fill="#FFFFFF">
                    <path d="M12,15 C12.788,15 13.564,14.68 14.12,14.12 C14.68,13.564 15,12.788 15,12 C15,11.212 14.68,10.436 14.12,9.88 C13.564,9.32 12.792,9 12,9 C11.208,9 10.436,9.32 9.88,9.88 C9.32,10.436 9,11.212 9,12 C9,12.788 9.32,13.564 9.88,14.12 C10.436,14.68 11.212,15 12,15 Z" id="Shape"></path>
                    <path d="M21,15 C21.792,15 22.564,14.68 23.12,14.12 C23.68,13.564 24,12.788 24,12 C24,11.212 23.68,10.436 23.12,9.88 C22.564,9.32 21.788,9 21,9 C20.212,9 19.436,9.32 18.88,9.88 C18.32,10.436 18,11.212 18,12 C18,12.788 18.32,13.564 18.88,14.12 C19.436,14.68 20.212,15 21,15 Z" id="Shape"></path>
                    <path d="M30,15 C30.788,15 31.564,14.68 32.12,14.12 C32.68,13.564 33,12.788 33,12 C33,11.212 32.68,10.436 32.12,9.88 C31.564,9.32 30.788,9 30,9 C29.212,9 28.436,9.32 27.88,9.88 C27.32,10.436 27,11.212 27,12 C27,12.788 27.32,13.564 27.88,14.12 C28.436,14.68 29.212,15 30,15 Z" id="Shape"></path>
                    <path d="M38.3981191,15 L135.601881,15 C136.926282,15 138,13.6568 138,12 C138,10.3432 136.926282,9 135.601881,9 L38.3981191,9 C37.0737179,9 36,10.3432 36,12 C36,13.6568 37.0737179,15 38.3981191,15 Z" id="Shape"></path>
                    <path d="M147.903226,15 L154.096774,15 C155.700129,15 157,13.6568 157,12 C157,10.3432 155.700129,9 154.096774,9 L147.903226,9 C146.299871,9 145,10.3432 145,12 C145,13.6568 146.299871,15 147.903226,15 Z" id="Shape"></path>
                    <path d="M153.168297,0 L12.8317025,0 C5.75639922,0 0,5.77343358 0,12.8696742 L0,117.130326 C0,124.226566 5.75639922,130 12.8317025,130 L153.168297,130 C160.243601,130 166,124.226566 166,117.130326 L166,12.8696742 C166,5.77343358 160.243601,0 153.168297,0 Z M12.8317025,4.88721805 L153.168297,4.88721805 C157.55674,4.88721805 161.127202,8.46824561 161.127202,12.8696742 L161.127202,20.8521303 L4.87279843,20.8521303 L4.87279843,12.8696742 C4.87279843,8.46824561 8.44326027,4.88721805 12.8317025,4.88721805 Z M153.168297,125.112782 L12.8317025,125.112782 C8.44326027,125.112782 4.87279843,121.531754 4.87279843,117.130326 L4.87279843,25.7393484 L161.127202,25.7393484 L161.127202,117.130326 C161.127202,121.531754 157.55674,125.112782 153.168297,125.112782 Z" id="Shape"></path>
                </g>
                <g id="user" transform="translate(48.000000, 39.000000)" stroke="#FFFFFF">
                    <g id="Group" fill="#FFFFFF">
                        <path d="M58.7096774,31.6129032 L49.6774194,31.6129032 L49.6774194,27.3745161 C49.5204839,27.3124194 49.3646774,27.2480645 49.2077419,27.1780645 L46.2101613,30.1756452 L39.8243548,23.7898387 L42.8219355,20.7922581 C42.7519355,20.6353226 42.6875806,20.4795161 42.6254839,20.3225806 L38.3870968,20.3225806 L38.3870968,11.2903226 L42.6254839,11.2903226 C42.6875806,11.1333871 42.7519355,10.9775806 42.8219355,10.8206452 L39.8243548,7.82306452 L46.2101613,1.43725806 L49.2077419,4.43483871 C49.3646774,4.36483871 49.5204839,4.30048387 49.6774194,4.2383871 L49.6774194,0 L58.7096774,0 L58.7096774,4.2383871 C58.8666129,4.30048387 59.0224194,4.36483871 59.1793548,4.43483871 L62.1769355,1.43725806 L68.5627419,7.82306452 L65.5651613,10.8206452 C65.6351613,10.9775806 65.6995161,11.1333871 65.7616129,11.2903226 L70,11.2903226 L70,20.3225806 L65.7616129,20.3225806 C65.6995161,20.4795161 65.6351613,20.6353226 65.5651613,20.7922581 L68.5627419,23.7898387 L62.1769355,30.1756452 L59.1793548,27.1780645 C59.0224194,27.2480645 58.8666129,27.3124194 58.7096774,27.3745161 L58.7096774,31.6129032 L58.7096774,31.6129032 Z M51.9354839,29.3548387 L56.4516129,29.3548387 L56.4516129,25.7509677 L57.2408065,25.5014516 C57.786129,25.3298387 58.3416129,25.0983871 58.8880645,24.8127419 L59.6230645,24.428871 L62.1769355,26.983871 L65.3698387,23.7909677 L62.8148387,21.2370968 L63.1987097,20.5020968 C63.4843548,19.9556452 63.7158065,19.4001613 63.8874194,18.8548387 L64.1380645,18.0645161 L67.7419355,18.0645161 L67.7419355,13.5483871 L64.1380645,13.5483871 L63.8885484,12.7591935 C63.7169355,12.213871 63.4854839,11.6583871 63.1998387,11.1119355 L62.8159677,10.3769355 L65.3709677,7.82306452 L62.1780645,4.63016129 L59.6241935,7.18403226 L58.8891935,6.80016129 C58.3427419,6.51451613 57.7872581,6.28306452 57.2419355,6.11145161 L56.4516129,5.86193548 L56.4516129,2.25806452 L51.9354839,2.25806452 L51.9354839,5.86193548 L51.1462903,6.11145161 C50.6009677,6.28306452 50.0454839,6.51451613 49.4990323,6.80016129 L48.7640323,7.18403226 L46.2101613,4.62903226 L43.0172581,7.82193548 L45.5722581,10.3758065 L45.1883871,11.1108065 C44.9027419,11.6572581 44.6712903,12.2127419 44.4996774,12.7580645 L44.2490323,13.5483871 L40.6451613,13.5483871 L40.6451613,18.0645161 L44.2490323,18.0645161 L44.4985484,18.8537097 C44.6701613,19.3990323 44.9016129,19.9545161 45.1872581,20.5009677 L45.571129,21.2359677 L43.016129,23.7898387 L46.2090323,26.9827419 L48.7629032,24.4277419 L49.4979032,24.8116129 C50.0443548,25.0972581 50.5998387,25.3287097 51.1451613,25.5003226 L51.9354839,25.7509677 L51.9354839,29.3548387 L51.9354839,29.3548387 Z" id="Shape"></path>
                        <path d="M58.7096774,70 L49.6774194,70 L49.6774194,65.7616129 C49.5204839,65.6995161 49.3646774,65.6351613 49.2077419,65.5651613 L46.2101613,68.5627419 L39.8243548,62.1769355 L42.8219355,59.1793548 C42.7519355,59.0224194 42.6875806,58.8666129 42.6254839,58.7096774 L38.3870968,58.7096774 L38.3870968,49.6774194 L42.6254839,49.6774194 C42.6875806,49.5204839 42.7519355,49.3646774 42.8219355,49.2077419 L39.8243548,46.2101613 L46.2101613,39.8243548 L49.2077419,42.8219355 C49.3646774,42.7519355 49.5204839,42.6875806 49.6774194,42.6254839 L49.6774194,38.3870968 L58.7096774,38.3870968 L58.7096774,42.6254839 C58.8666129,42.6875806 59.0224194,42.7519355 59.1793548,42.8219355 L62.1769355,39.8243548 L68.5627419,46.2101613 L65.5651613,49.2077419 C65.6351613,49.3646774 65.6995161,49.5204839 65.7616129,49.6774194 L70,49.6774194 L70,58.7096774 L65.7616129,58.7096774 C65.6995161,58.8666129 65.6351613,59.0224194 65.5651613,59.1793548 L68.5627419,62.1769355 L62.1769355,68.5627419 L59.1793548,65.5651613 C59.0224194,65.6351613 58.8666129,65.6995161 58.7096774,65.7616129 L58.7096774,70 L58.7096774,70 Z M51.9354839,67.7419355 L56.4516129,67.7419355 L56.4516129,64.1380645 L57.2408065,63.8885484 C57.786129,63.7169355 58.3416129,63.4854839 58.8880645,63.1998387 L59.6230645,62.8159677 L62.1769355,65.3709677 L65.3698387,62.1780645 L62.8148387,59.6241935 L63.1987097,58.8891935 C63.4843548,58.3427419 63.7158065,57.7872581 63.8874194,57.2419355 L64.1380645,56.4516129 L67.7419355,56.4516129 L67.7419355,51.9354839 L64.1380645,51.9354839 L63.8885484,51.1462903 C63.7169355,50.6009677 63.4854839,50.0454839 63.1998387,49.4990323 L62.8159677,48.7640323 L65.3709677,46.2101613 L62.1780645,43.0172581 L59.6241935,45.5722581 L58.8891935,45.1883871 C58.3427419,44.9027419 57.7872581,44.6712903 57.2419355,44.4996774 L56.4516129,44.2490323 L56.4516129,40.6451613 L51.9354839,40.6451613 L51.9354839,44.2490323 L51.1462903,44.4985484 C50.6009677,44.6701613 50.0454839,44.9016129 49.4990323,45.1872581 L48.7640323,45.571129 L46.2101613,43.016129 L43.0172581,46.2090323 L45.5722581,48.7629032 L45.1883871,49.4979032 C44.9027419,50.0443548 44.6712903,50.5998387 44.4996774,51.1451613 L44.2490323,51.9354839 L40.6451613,51.9354839 L40.6451613,56.4516129 L44.2490323,56.4516129 L44.4985484,57.2408065 C44.6701613,57.786129 44.9016129,58.3416129 45.1872581,58.8880645 L45.571129,59.6230645 L43.016129,62.1769355 L46.2090323,65.3698387 L48.7629032,62.8148387 L49.4979032,63.1987097 C50.0443548,63.4843548 50.5998387,63.7158065 51.1451613,63.8874194 L51.9354839,64.1380645 L51.9354839,67.7419355 L51.9354839,67.7419355 Z" id="Shape"></path>
                        <path d="M24.8387097,55.3225806 L15.8064516,55.3225806 L15.8064516,50.1358065 C14.77,49.8264516 13.7685484,49.4109677 12.8156452,48.893871 L9.14629032,52.5632258 L2.75935484,46.1762903 L6.42870968,42.5069355 C5.9116129,41.5529032 5.49725806,40.5525806 5.18677419,39.516129 L0,39.516129 L0,30.483871 L5.18677419,30.483871 C5.49612903,29.4474194 5.9116129,28.4459677 6.42870968,27.4930645 L2.75935484,23.8237097 L9.14629032,17.4367742 L12.8156452,21.106129 C13.7696774,20.5890323 14.77,20.1746774 15.8064516,19.8641935 L15.8064516,14.6774194 L24.8387097,14.6774194 L24.8387097,19.8641935 C25.8751613,20.1735484 26.8766129,20.5890323 27.8295161,21.106129 L31.498871,17.4367742 L37.8858065,23.8237097 L34.2164516,27.4930645 C34.7335484,28.4470968 35.1479032,29.4474194 35.4583871,30.483871 L40.6451613,30.483871 L40.6451613,39.516129 L35.4583871,39.516129 C35.1490323,40.5525806 34.7335484,41.5540323 34.2164516,42.5069355 L37.8858065,46.1762903 L31.498871,52.5632258 L27.8295161,48.893871 C26.8754839,49.4109677 25.8751613,49.8253226 24.8387097,50.1358065 L24.8387097,55.3225806 Z M18.0645161,53.0645161 L22.5806452,53.0645161 L22.5806452,48.3767742 L23.45,48.1712903 C24.8522581,47.8382258 26.1890323,47.283871 27.4230645,46.5229032 L28.1829032,46.0532258 L31.5,49.3703226 L34.6940323,46.1762903 L31.3769355,42.8591935 L31.8466129,42.0993548 C32.6075806,40.8653226 33.1619355,39.5296774 33.495,38.1262903 L33.6993548,37.2580645 L38.3870968,37.2580645 L38.3870968,32.7419355 L33.6993548,32.7419355 L33.493871,31.8725806 C33.1608065,30.4703226 32.6064516,29.1335484 31.8454839,27.8995161 L31.3758065,27.1396774 L34.6929032,23.8225806 L31.498871,20.6285484 L28.1817742,23.9456452 L27.4219355,23.4759677 C26.1879032,22.715 24.8522581,22.1606452 23.448871,21.8275806 L22.5806452,21.6232258 L22.5806452,16.9354839 L18.0645161,16.9354839 L18.0645161,21.6232258 L17.1951613,21.8287097 C15.7929032,22.1617742 14.456129,22.716129 13.2220968,23.4770968 L12.4622581,23.9467742 L9.14516129,20.6296774 L5.95112903,23.8237097 L9.26822581,27.1408065 L8.79854839,27.9006452 C8.03758065,29.1346774 7.48322581,30.4703226 7.15016129,31.8737097 L6.94580645,32.7419355 L2.25806452,32.7419355 L2.25806452,37.2580645 L6.94580645,37.2580645 L7.15129032,38.1274194 C7.48435484,39.5296774 8.03870968,40.8664516 8.79967742,42.1004839 L9.26935484,42.8603226 L5.95225806,46.1774194 L9.14629032,49.3714516 L12.4633871,46.0543548 L13.2232258,46.5240323 C14.4572581,47.285 15.7929032,47.8393548 17.1962903,48.1724194 L18.0645161,48.3767742 L18.0645161,53.0645161 Z" id="Shape"></path>
                    </g>
                    <g id="Group" transform="translate(14.677419, 6.774194)" stroke-width="2">
                        <path d="M39.516129,8.03225806 C41.4544894,8.03225806 43.0322581,6.45448944 43.0322581,4.51612903 C43.0322581,2.57776862 41.4544894,1 39.516129,1 C37.5777686,1 36,2.57776862 36,4.51612903 C36,6.45448944 37.5777686,8.03225806 39.516129,8.03225806 Z" id="Shape"></path>
                        <path d="M44.1612903,15.9354839 L44.1612903,14.6774194 C44.1612903,12.1169622 42.0765862,10.0322581 39.516129,10.0322581 C36.9556718,10.0322581 34.8709677,12.1169622 34.8709677,14.6774194 L34.8709677,15.9354839 L44.1612903,15.9354839 Z" id="Shape"></path>
                        <path d="M39.516129,46.4193548 C41.4544894,46.4193548 43.0322581,44.8415862 43.0322581,42.9032258 C43.0322581,40.9648654 41.4544894,39.3870968 39.516129,39.3870968 C37.5777686,39.3870968 36,40.9648654 36,42.9032258 C36,44.8415862 37.5777686,46.4193548 39.516129,46.4193548 Z" id="Shape"></path>
                        <path d="M44.1612903,54.3225806 L44.1612903,53.0645161 C44.1612903,50.5040589 42.0765862,48.4193548 39.516129,48.4193548 C36.9556718,48.4193548 34.8709677,50.5040589 34.8709677,53.0645161 L34.8709677,54.3225806 L44.1612903,54.3225806 Z" id="Shape"></path>
                        <path d="M5.64516129,27.2258065 C7.5835217,27.2258065 9.16129032,25.6480378 9.16129032,23.7096774 C9.16129032,21.771317 7.5835217,20.1935484 5.64516129,20.1935484 C3.70680088,20.1935484 2.12903226,21.771317 2.12903226,23.7096774 C2.12903226,25.6480378 3.70680088,27.2258065 5.64516129,27.2258065 Z" id="Shape"></path>
                        <path d="M10.2903226,35.1290323 L10.2903226,33.8709677 C10.2903226,31.3105106 8.20561848,29.2258065 5.64516129,29.2258065 C3.0847041,29.2258065 1,31.3105106 1,33.8709677 L1,35.1290323 L10.2903226,35.1290323 Z" id="Shape"></path>
                    </g>
                </g>
            </g>
        </g>
    </g>
</svg>