<?xml version="1.0" encoding="UTF-8"?>
<svg width="192px" height="130px" viewBox="0 0 192 130" version="1.1" xmlns="http://www.w3.org/2000/svg" xmlns:xlink="http://www.w3.org/1999/xlink">
    <!-- Generator: Sketch 46.2 (44496) - http://www.bohemiancoding.com/sketch -->
    <title>Artboard 2 Copy 3</title>
    <desc>Created with Sketch.</desc>
    <defs></defs>
    <g id="Page-1" stroke="none" stroke-width="1" fill="none" fill-rule="evenodd">
        <g id="Artboard-2-Copy-3" fill-rule="nonzero">
            <g id="Group-3-Copy" transform="translate(13.000000, 0.000000)">
                <g id="ux-design-copy-4" fill="#FFFFFF">
                    <path d="M12,15 C12.788,15 13.564,14.68 14.12,14.12 C14.68,13.564 15,12.788 15,12 C15,11.212 14.68,10.436 14.12,9.88 C13.564,9.32 12.792,9 12,9 C11.208,9 10.436,9.32 9.88,9.88 C9.32,10.436 9,11.212 9,12 C9,12.788 9.32,13.564 9.88,14.12 C10.436,14.68 11.212,15 12,15 Z" id="Shape"></path>
                    <path d="M21,15 C21.792,15 22.564,14.68 23.12,14.12 C23.68,13.564 24,12.788 24,12 C24,11.212 23.68,10.436 23.12,9.88 C22.564,9.32 21.788,9 21,9 C20.212,9 19.436,9.32 18.88,9.88 C18.32,10.436 18,11.212 18,12 C18,12.788 18.32,13.564 18.88,14.12 C19.436,14.68 20.212,15 21,15 Z" id="Shape"></path>
                    <path d="M30,15 C30.788,15 31.564,14.68 32.12,14.12 C32.68,13.564 33,12.788 33,12 C33,11.212 32.68,10.436 32.12,9.88 C31.564,9.32 30.788,9 30,9 C29.212,9 28.436,9.32 27.88,9.88 C27.32,10.436 27,11.212 27,12 C27,12.788 27.32,13.564 27.88,14.12 C28.436,14.68 29.212,15 30,15 Z" id="Shape"></path>
                    <path d="M38.3981191,15 L135.601881,15 C136.926282,15 138,13.6568 138,12 C138,10.3432 136.926282,9 135.601881,9 L38.3981191,9 C37.0737179,9 36,10.3432 36,12 C36,13.6568 37.0737179,15 38.3981191,15 Z" id="Shape"></path>
                    <path d="M147.903226,15 L154.096774,15 C155.700129,15 157,13.6568 157,12 C157,10.3432 155.700129,9 154.096774,9 L147.903226,9 C146.299871,9 145,10.3432 145,12 C145,13.6568 146.299871,15 147.903226,15 Z" id="Shape"></path>
                    <path d="M153.168297,0 L12.8317025,0 C5.75639922,0 0,5.77343358 0,12.8696742 L0,117.130326 C0,124.226566 5.75639922,130 12.8317025,130 L153.168297,130 C160.243601,130 166,124.226566 166,117.130326 L166,12.8696742 C166,5.77343358 160.243601,0 153.168297,0 Z M12.8317025,4.88721805 L153.168297,4.88721805 C157.55674,4.88721805 161.127202,8.46824561 161.127202,12.8696742 L161.127202,20.8521303 L4.87279843,20.8521303 L4.87279843,12.8696742 C4.87279843,8.46824561 8.44326027,4.88721805 12.8317025,4.88721805 Z M153.168297,125.112782 L12.8317025,125.112782 C8.44326027,125.112782 4.87279843,121.531754 4.87279843,117.130326 L4.87279843,25.7393484 L161.127202,25.7393484 L161.127202,117.130326 C161.127202,121.531754 157.55674,125.112782 153.168297,125.112782 Z" id="Shape"></path>
                </g>
                <g id="creative-copy" transform="translate(51.000000, 39.000000)" stroke="#FFFFFF">
                    <path d="M42.5680089,57.8358209 L21.9992326,57.8358209 L21.9992326,54.7355126 C21.9992326,51.5192344 20.7501895,48.2939607 18.4831942,45.6519398 C15.5658807,42.2586679 13.9741606,37.9113801 14.0003173,33.4123834 C14.0574301,23.7175986 21.8713286,15.46648 31.4187694,15.0196194 C36.4787738,14.7891385 41.262093,16.5953015 44.908435,20.1239931 C48.5571767,23.6551159 50.5671642,28.4132821 50.5671642,33.5234908 C50.5671642,38.0628459 48.9238506,42.4298267 45.9391055,45.8209105 C43.7656985,48.2903138 42.5680089,51.453348 42.5680089,54.7272464 L42.5680089,57.8358209 Z" id="Shape" stroke-width="3"></path>
                    <path d="M63.7313433,39.0162078 L63.7313433,25.2457673 L58.31074,25.2457673 C57.6733453,22.7499157 56.6946684,20.3699764 55.3916778,18.1459525 L59.2258447,14.2786717 L49.5705221,4.54299465 L45.7351602,8.40907057 C43.5294926,7.09523613 41.1691964,6.1072095 38.6939445,5.46571513 L38.6939445,0 L25.0371598,0 L25.0371598,5.46571513 C22.5619079,6.10841441 20.2016117,7.09523613 17.9959441,8.40907057 L14.1608212,4.54299465 L4.50549858,14.2786717 L8.33966544,18.1459525 C7.03667487,20.3699764 6.05680302,22.7499157 5.42060329,25.2457673 L0,25.2457673 L0,39.0162078 L5.42060329,39.0162078 C6.05799798,41.5120594 7.03667487,43.8919987 8.33966544,46.1160226 L4.50549858,49.9833034 L14.1608212,59.7189804 L17.998334,55.8507357 C18.4466851,56.1124423 18.9304072,56.3693292 19.4346827,56.6252522 C19.3811483,56.8674392 19.3469722,57.1175786 19.3469722,57.3768754 C19.3469722,58.5988956 19.9865179,59.6686152 20.9412955,60.2790229 C20.6590446,60.7805066 20.4848186,61.3509113 20.4848186,61.9671025 C20.4848186,63.1891228 21.1243642,64.2588423 22.0791418,64.86925 C21.7968909,65.3707338 21.6226649,65.9411384 21.6226649,66.5573296 C21.6226649,68.4553047 23.1546109,70 25.0369208,70 L38.6937055,70 C40.5760154,70 42.1079614,68.4553047 42.1079614,66.5573296 C42.1079614,65.9411384 41.9337354,65.3707338 41.6514845,64.86925 C42.6062621,64.2588423 43.2458077,63.1893637 43.2458077,61.9671025 C43.2458077,61.3509113 43.0715817,60.7805066 42.7893309,60.2790229 C43.7441084,59.6686152 44.3836541,58.5991366 44.3836541,57.3768754 C44.3836541,57.1175786 44.349478,56.8674392 44.2959436,56.6240473 C44.7990241,56.3693292 45.2837022,56.1122013 45.7322923,55.8495308 L49.5698051,59.7177755 L59.2251277,49.9820985 L55.3909609,46.1148176 C56.6951464,43.8907938 57.6738233,41.5108545 58.310023,39.0150029 L63.7306263,39.0150029 L63.7306263,39.0162078 L63.7313433,39.0162078 Z M22.7612282,58.5241912 C22.1329152,58.5241912 21.6231429,58.0101763 21.6231429,57.3766344 C21.6231429,56.7430924 22.1329152,56.2290776 22.7612282,56.2290776 L40.9701151,56.2290776 C41.5984281,56.2290776 42.1082004,56.7430924 42.1082004,57.3766344 C42.1082004,58.0101763 41.5984281,58.5241912 40.9701151,58.5241912 L39.8320298,58.5241912 L23.8990745,58.5241912 L22.7612282,58.5241912 Z M28.4514157,44.3211878 C29.1091248,44.5987992 29.8296891,44.7537507 30.5853854,44.7537507 L30.7275863,44.7537507 L30.7275863,48.1964211 L33.0037569,48.1964211 L33.0037569,44.7537507 L33.1459579,44.7537507 C33.9016542,44.7537507 34.6219795,44.5987992 35.2799276,44.3211878 L35.2799276,53.933964 L28.4516547,53.933964 L28.4516547,44.3211878 L28.4514157,44.3211878 L28.4514157,44.3211878 Z M40.9701151,61.9668615 C40.9701151,62.6004035 40.4603428,63.1144183 39.8320298,63.1144183 L38.6939445,63.1144183 L25.0371598,63.1144183 L23.8990745,63.1144183 C23.2707615,63.1144183 22.7609892,62.6004035 22.7609892,61.9668615 C22.7609892,61.3333196 23.2707615,60.8193047 23.8990745,60.8193047 L39.8320298,60.8193047 C40.4603428,60.8193047 40.9701151,61.3333196 40.9701151,61.9668615 Z M38.6941835,67.7044045 L25.0373988,67.7044045 C24.4090858,67.7044045 23.8993135,67.1903896 23.8993135,66.5568477 C23.8993135,65.9233057 24.4090858,65.4092909 25.0373988,65.4092909 L38.6941835,65.4092909 C39.3224964,65.4092909 39.8322688,65.9233057 39.8322688,66.5568477 C39.8320298,67.1903896 39.3222574,67.7044045 38.6941835,67.7044045 Z M56.3022417,37.6197165 C55.6729728,40.48162 54.5599817,43.1897769 52.9926648,45.6709286 L52.5022508,46.4478549 L56.0075632,49.9833034 L49.5707611,56.4736744 L46.0644928,52.9391899 L45.2939789,53.4336852 C44.6326849,53.8595005 43.8781836,54.2667603 43.0598711,54.674261 C42.4793568,54.2176 41.7614214,53.934205 40.9703541,53.934205 L37.5560982,53.934205 L37.5560982,42.5174368 C38.2606499,41.5800164 38.6941835,40.4254711 38.6941835,39.1598331 L38.6941835,38.8730644 C38.6941835,35.7884934 36.205309,33.2789058 33.1461969,33.2789058 L30.5856244,33.2789058 C28.7817042,33.2789058 27.3138084,31.7985527 27.3138084,29.9798608 L27.3138084,29.6930921 C27.3138084,27.8741591 28.7819432,26.3940471 30.5856244,26.3940471 L33.1461969,26.3940471 C34.950117,26.3940471 36.4180129,27.8744001 36.4180129,29.6930921 L38.6941835,29.8364764 C38.6941835,26.6085211 36.205309,24.0989335 33.1461969,24.0989335 L33.0037569,20.6555402 L30.7275863,20.6555402 L30.7275863,24.0982105 C27.5262733,24.0982105 25.0373988,26.6077982 25.0373988,29.6923691 L25.0373988,29.9791378 C25.0373988,33.0637088 27.5262733,35.5732964 30.5853854,35.5732964 L33.1459579,35.5732964 C34.949878,35.5732964 36.4177739,37.0536495 36.4177739,38.8723415 L36.4177739,39.1591102 C36.4177739,40.9780431 34.9496391,42.4581552 33.1459579,42.4581552 L30.5853854,42.4581552 C29.382772,42.4581552 27.5334431,41.3105984 25.0373988,39.0154848 C25.3264212,40.7237266 25.7057829,41.890803 26.1754841,42.5167138 L26.1754841,53.9334821 L22.7612282,53.9334821 C21.9701609,53.9334821 21.2522255,54.216877 20.6717112,54.6735381 C19.8533987,54.2662783 19.0988974,53.8587776 18.4376034,53.4329622 L17.6670895,52.9384669 L14.1608212,56.4729515 L7.72401912,49.9825804 L11.2293314,46.447132 L10.7389175,45.6702057 C9.17183953,43.1904998 8.05884851,40.4821019 7.42934059,37.6189935 L7.23121528,36.7203713 L2.27617062,36.7203713 L2.27617062,27.5401579 L7.23121528,27.5401579 L7.42934059,26.6415357 C8.05860951,23.7796322 9.17160054,21.0714753 10.7389175,18.5903235 L11.2293314,17.8133972 L7.72401912,14.2786717 L14.1608212,7.78830066 L17.6670895,11.3227852 L18.4376034,10.8282899 C20.8968427,9.24817026 23.5828866,8.12591659 26.422364,7.49116973 L27.3135694,7.29139556 L27.3135694,2.29511357 L36.4180129,2.29511357 L36.4180129,7.29139556 L37.3092183,7.49116973 C40.1475007,8.12567561 42.8333056,9.24792928 45.2939789,10.8282899 L46.0644928,11.3227852 L49.5707611,7.78830066 L56.0075632,14.2786717 L52.5022508,17.8141202 L52.9926648,18.5910465 C54.5597427,21.0707523 55.6727338,23.7791502 56.3022417,26.6422586 L56.500367,27.5408809 L61.4554117,27.5408809 L61.4554117,36.7210942 L56.500367,36.7210942 L56.3022417,37.6197165 Z" id="Shape" fill="#FFFFFF"></path>
                </g>
            </g>
        </g>
    </g>
</svg>