<?xml version="1.0" encoding="UTF-8"?>
<svg width="192px" height="130px" viewBox="0 0 192 130" version="1.1" xmlns="http://www.w3.org/2000/svg" xmlns:xlink="http://www.w3.org/1999/xlink">
    <!-- Generator: Sketch 46.2 (44496) - http://www.bohemiancoding.com/sketch -->
    <title>Artboard 2 Copy</title>
    <desc>Created with Sketch.</desc>
    <defs></defs>
    <g id="Page-1" stroke="none" stroke-width="1" fill="none" fill-rule="evenodd">
        <g id="Artboard-2-Copy" fill-rule="nonzero">
            <g id="Group-4-Copy" transform="translate(13.000000, 0.000000)">
                <g id="ux-design-copy-8" fill="#FFFFFF">
                    <path d="M12,15 C12.788,15 13.564,14.68 14.12,14.12 C14.68,13.564 15,12.788 15,12 C15,11.212 14.68,10.436 14.12,9.88 C13.564,9.32 12.792,9 12,9 C11.208,9 10.436,9.32 9.88,9.88 C9.32,10.436 9,11.212 9,12 C9,12.788 9.32,13.564 9.88,14.12 C10.436,14.68 11.212,15 12,15 Z" id="Shape"></path>
                    <path d="M21,15 C21.792,15 22.564,14.68 23.12,14.12 C23.68,13.564 24,12.788 24,12 C24,11.212 23.68,10.436 23.12,9.88 C22.564,9.32 21.788,9 21,9 C20.212,9 19.436,9.32 18.88,9.88 C18.32,10.436 18,11.212 18,12 C18,12.788 18.32,13.564 18.88,14.12 C19.436,14.68 20.212,15 21,15 Z" id="Shape"></path>
                    <path d="M30,15 C30.788,15 31.564,14.68 32.12,14.12 C32.68,13.564 33,12.788 33,12 C33,11.212 32.68,10.436 32.12,9.88 C31.564,9.32 30.788,9 30,9 C29.212,9 28.436,9.32 27.88,9.88 C27.32,10.436 27,11.212 27,12 C27,12.788 27.32,13.564 27.88,14.12 C28.436,14.68 29.212,15 30,15 Z" id="Shape"></path>
                    <path d="M38.3981191,15 L135.601881,15 C136.926282,15 138,13.6568 138,12 C138,10.3432 136.926282,9 135.601881,9 L38.3981191,9 C37.0737179,9 36,10.3432 36,12 C36,13.6568 37.0737179,15 38.3981191,15 Z" id="Shape"></path>
                    <path d="M147.903226,15 L154.096774,15 C155.700129,15 157,13.6568 157,12 C157,10.3432 155.700129,9 154.096774,9 L147.903226,9 C146.299871,9 145,10.3432 145,12 C145,13.6568 146.299871,15 147.903226,15 Z" id="Shape"></path>
                    <path d="M153.168297,0 L12.8317025,0 C5.75639922,0 0,5.77343358 0,12.8696742 L0,117.130326 C0,124.226566 5.75639922,130 12.8317025,130 L153.168297,130 C160.243601,130 166,124.226566 166,117.130326 L166,12.8696742 C166,5.77343358 160.243601,0 153.168297,0 Z M12.8317025,4.88721805 L153.168297,4.88721805 C157.55674,4.88721805 161.127202,8.46824561 161.127202,12.8696742 L161.127202,20.8521303 L4.87279843,20.8521303 L4.87279843,12.8696742 C4.87279843,8.46824561 8.44326027,4.88721805 12.8317025,4.88721805 Z M153.168297,125.112782 L12.8317025,125.112782 C8.44326027,125.112782 4.87279843,121.531754 4.87279843,117.130326 L4.87279843,25.7393484 L161.127202,25.7393484 L161.127202,117.130326 C161.127202,121.531754 157.55674,125.112782 153.168297,125.112782 Z" id="Shape"></path>
                </g>
                <g id="mind-copy" transform="translate(48.000000, 39.000000)">
                    <path d="M49.8273053,29.1161815 L49.8273053,22.3970627 L46.0276436,22.3970627 C45.7107252,21.1674639 45.2269486,20.0072961 44.5964713,18.9411959 L47.282999,16.2546682 L42.5314621,11.5031314 L39.8449344,14.1896591 C38.7777144,13.5591817 37.6186664,13.076525 36.3890677,12.7584868 L36.3890677,8.95882507 L29.6699489,8.95882507 L29.6699489,12.7584868 C28.4403501,13.0754052 27.2801823,13.5591817 26.2140821,14.1896591 L23.5275544,11.5031314 L18.7760176,16.2546682 L21.4625452,18.9411959 C20.8320679,20.0084159 20.3494112,21.1674639 20.0313729,22.3970627 L16.2317113,22.3970627 L16.2317113,29.1161815 L20.0313729,29.1161815 C20.3482914,30.3457802 20.8320679,31.5059481 21.4625452,32.5720483 L18.7760176,35.2585759 L23.5275544,40.0101128 L26.2140821,37.3235851 C27.2813021,37.9540624 28.4403501,38.437839 29.6699489,38.7547574 L29.6699489,42.5544191 L36.3890677,42.5544191 L36.3890677,38.7547574 C37.6186664,38.437839 38.7788343,37.9540624 39.8449344,37.3235851 L42.5314621,40.0101128 L47.282999,35.2585759 L44.5964713,32.5720483 C45.2269486,31.5048282 45.7096053,30.3457802 46.0276436,29.1161815 L49.8273053,29.1161815 L49.8273053,29.1161815 Z M33.0295083,33.595594 C28.700156,33.595594 25.1905363,30.0859743 25.1905363,25.7566221 C25.1905363,21.4272699 28.700156,17.9176501 33.0295083,17.9176501 C37.3588605,17.9176501 40.8684802,21.4272699 40.8684802,25.7566221 C40.8684802,30.0859743 37.3588605,33.595594 33.0295083,33.595594 Z" id="Shape" stroke="#FFFFFF" stroke-width="3"></path>
                    <g id="Group" fill="#FFFFFF">
                        <path d="M33.0295083,16.797797 C28.0898361,16.797797 24.0706832,20.8169499 24.0706832,25.7566221 C24.0706832,30.6962943 28.0898361,34.7154472 33.0295083,34.7154472 C37.9691804,34.7154472 41.9883333,30.6962943 41.9883333,25.7566221 C41.9883333,20.8169499 37.9691804,16.797797 33.0295083,16.797797 Z M33.0295083,32.4757409 C29.3239142,32.4757409 26.3103895,29.4622161 26.3103895,25.7566221 C26.3103895,22.0510281 29.3239142,19.0375033 33.0295083,19.0375033 C36.7351023,19.0375033 39.7486271,22.0510281 39.7486271,25.7566221 C39.7486271,29.4622161 36.7351023,32.4757409 33.0295083,32.4757409 Z" id="Shape"></path>
                        <path d="M68.8648085,13.4382376 L68.8648085,6.7191188 L67.0909612,6.7191188 C67.0782695,6.68850949 67.4776838,6.22489029 68.289204,5.32826121 L63.5365473,0.575604511 L62.2823118,1.83095987 C62.2524491,1.81752164 62.2069084,1.20720168 62.1456897,0 L55.4265709,0 L55.4265709,1.77384736 C55.3959616,1.78653903 54.9323424,1.38712475 54.0357133,0.575604511 L49.2830566,5.32826121 L50.538412,6.58249672 C50.5249738,6.61235947 50.4480772,6.65790017 50.3077223,6.7191188 C45.6480134,2.48719381 39.6534395,0.104146341 33.3553855,0.0235169158 C33.2456399,0.0223970627 33.138134,0.0212772095 33.0295083,0.0212772095 C20.9317349,0.0212772095 10.3580816,8.63854708 7.81265539,20.6243352 C7.18329793,23.5818673 7.10490821,26.6323472 7.57748623,29.699625 L0.00615919224,43.2420089 L8.39273931,45.6384946 L8.39273931,59.3522161 L19.5912707,59.3522161 L19.5912707,69.4308943 L21.8309769,69.4308943 L21.8309769,57.1125098 L10.6324456,57.1125098 L10.6324456,43.9497561 L3.34108183,41.8668293 L9.91573958,30.1083714 L9.84966824,29.7186625 C9.35581301,26.7992054 9.4062064,23.896546 10.004208,21.0901941 C12.3503003,10.0383635 22.1299777,2.08964595 33.3273892,2.26322318 C39.0341608,2.33601364 44.4665683,4.48389195 48.7074521,8.29363231 L48.7074521,13.4382376 L50.4812995,13.4382376 C50.4939912,13.4688469 50.0945769,13.9324661 49.2830566,14.8290952 L54.0357133,19.5817519 L55.2899489,18.3263965 C55.3198116,18.3398348 55.3653523,18.9501547 55.4265709,20.1573564 L55.8308379,20.1573564 C56.2821387,21.9972751 56.5251469,23.8786284 56.5251469,25.7678206 L56.5285064,29.8530448 C56.5285064,30.7186913 56.4713939,31.5966562 56.3874049,32.4757409 L55.4265709,32.4757409 L55.4265709,34.2495883 C55.3959616,34.2622799 54.9323424,33.8628656 54.0357133,33.0513454 L49.2830566,37.8040021 L50.538412,39.0582376 C50.5249738,39.0881004 49.9146538,39.1336411 48.7074521,39.1948597 L48.7074521,45.9139785 L50.4812995,45.9139785 C50.4939912,45.9445878 50.0945769,46.408207 49.2830566,47.3048361 L49.7690729,47.7908523 C48.2639903,49.5109468 46.5741319,51.0406661 44.712936,52.322898 L44.2280396,52.6566142 L44.2280396,69.4308943 L46.4677459,69.4308943 L46.4677459,53.8257409 C48.2539116,52.5412693 49.8855376,51.0440257 51.3570247,49.3788041 L54.0357133,52.0574928 L55.2899489,50.8021374 C55.3198116,50.8155757 55.3653523,51.4258956 55.4265709,52.6330973 L62.1456897,52.6330973 L62.1456897,50.8592499 C62.1762991,50.8465583 62.6399183,51.2459726 63.5365473,52.0574928 L68.289204,47.3048361 L67.0338487,46.0506006 C67.0472869,46.0207378 67.6576069,45.9751971 68.8648085,45.9139785 L68.8648085,39.1948597 L67.0909612,39.1948597 C67.0782695,39.1642504 67.4776838,38.7006312 68.289204,37.8040021 L63.5365473,33.0513454 L62.2823118,34.3067008 C62.2524491,34.2932625 62.2069084,33.6829426 62.1456897,32.4757409 L58.63607,32.4757409 C58.7144597,31.5966562 58.7682127,30.7186913 58.7682127,29.851925 L58.7648531,25.7667008 C58.7648531,23.8808681 58.5476016,22.0017545 58.1354957,20.1573564 L62.1456897,20.1573564 L62.1456897,18.383509 C62.1762991,18.3708174 62.6399183,18.7702317 63.5365473,19.5817519 L68.289204,14.8290952 L67.0338487,13.5748597 C67.0909612,13.4382376 68.8648085,13.4382376 68.8648085,13.4382376 Z M60.7055586,36.1175033 C61.1613388,36.2541254 61.5902426,36.4299423 61.9810713,36.6427144 L62.7168148,37.0413821 L63.5365473,36.2205298 L65.1200197,37.8040021 L64.2991673,38.6237346 L64.697835,39.3594781 C64.9094873,39.7503068 65.0864241,40.1780907 65.2230462,40.6349908 L65.4615749,41.434566 L66.6251023,41.434566 L66.6251023,43.6742722 L65.4615749,43.6742722 L65.2230462,44.4738474 C65.0864241,44.9296276 64.9106071,45.3585313 64.697835,45.7493601 L64.2991673,46.4851036 L65.1200197,47.3048361 L63.5365473,48.8883084 L62.7168148,48.0674561 L61.9810713,48.4661238 C61.5902426,48.677776 61.1624587,48.8547128 60.7055586,48.9913349 L59.9059835,49.2298636 L59.9059835,50.393391 L57.6662772,50.393391 L57.6662772,49.2298636 L56.8667021,48.9913349 C56.4109218,48.8547128 55.9820181,48.6788959 55.5911894,48.4661238 L54.8554458,48.0674561 L54.0357133,48.8883084 L52.452241,47.3048361 L53.2730934,46.4851036 L52.8744256,45.7493601 C52.6627734,45.3585313 52.4858366,44.9307474 52.3492145,44.4738474 L52.1106858,43.6742722 L50.9471584,43.6742722 L50.9471584,41.434566 L52.1106858,41.434566 L52.3492145,40.6349908 C52.4858366,40.1792106 52.6616536,39.7503068 52.8744256,39.3594781 L53.2730934,38.6237346 L52.452241,37.8040021 L54.0357133,36.2205298 L54.8554458,37.0413821 L55.5911894,36.6427144 C55.9820181,36.4310622 56.409802,36.2541254 56.8667021,36.1175033 L57.6662772,35.8789746 L57.6662772,34.7154472 L59.9059835,34.7154472 L59.9059835,35.8789746 L60.7055586,36.1175033 Z M66.6251023,11.1985313 L65.4615749,11.1985313 L65.2230462,11.9981065 C65.0864241,12.4538867 64.9106071,12.8827905 64.697835,13.2736192 L64.2991673,14.0093627 L65.1200197,14.8290952 L63.5365473,16.4125675 L62.7168148,15.5917152 L61.9810713,15.9903829 C61.5902426,16.2020351 61.1624587,16.3789719 60.7055586,16.515594 L59.9059835,16.7541227 L59.9059835,17.9176501 L57.6662772,17.9176501 L57.6662772,16.7541227 L56.8667021,16.515594 C56.4109218,16.3789719 55.9820181,16.203155 55.5911894,15.9903829 L54.8554458,15.5917152 L54.0357133,16.4125675 L52.452241,14.8290952 L53.2730934,14.0093627 L52.8744256,13.2736192 C52.6627734,12.8827905 52.4858366,12.4550066 52.3492145,11.9981065 L52.1106858,11.1985313 L50.9471584,11.1985313 L50.9471584,8.95882507 L52.1106858,8.95882507 L52.3492145,8.15924993 C52.4858366,7.70346971 52.6616536,7.27456596 52.8744256,6.88373721 L53.2730934,6.14799371 L52.452241,5.32826121 L54.0357133,3.74478888 L54.8554458,4.56564123 L55.5911894,4.16697351 C55.9820181,3.95532127 56.409802,3.77838447 56.8667021,3.64176239 L57.6662772,3.40323367 L57.6662772,2.23970627 L59.9059835,2.23970627 L59.9059835,3.40323367 L60.7055586,3.64176239 C61.1613388,3.77838447 61.5902426,3.95420142 61.9810713,4.16697351 L62.7168148,4.56564123 L63.5365473,3.74478888 L65.1200197,5.32826121 L64.2991673,6.14799371 L64.697835,6.88373721 C64.9094873,7.27456596 65.0864241,7.70234986 65.2230462,8.15924993 L65.4615749,8.95882507 L66.6251023,8.95882507 L66.6251023,11.1985313 Z" id="Shape" stroke="#FFFFFF"></path>
                        <path d="M58.7861303,5.59926567 C56.3157343,5.59926567 54.3067178,7.60828219 54.3067178,10.0786782 C54.3067178,12.5490742 56.3157343,14.5580907 58.7861303,14.5580907 C61.2565264,14.5580907 63.2655429,12.5490742 63.2655429,10.0786782 C63.2655429,7.60828219 61.2565264,5.59926567 58.7861303,5.59926567 Z M58.7861303,12.3183845 C57.5509323,12.3183845 56.5464241,11.3138762 56.5464241,10.0786782 C56.5464241,8.8434802 57.5509323,7.83897194 58.7861303,7.83897194 C60.0213284,7.83897194 61.0258366,8.8434802 61.0258366,10.0786782 C61.0258366,11.3138762 60.0213284,12.3183845 58.7861303,12.3183845 Z" id="Shape"></path>
                        <path d="M54.3067178,42.5544191 C54.3067178,45.0248151 56.3157343,47.0338316 58.7861303,47.0338316 C61.2565264,47.0338316 63.2655429,45.0248151 63.2655429,42.5544191 C63.2655429,40.0840231 61.2565264,38.0750066 58.7861303,38.0750066 C56.3157343,38.0750066 54.3067178,40.0840231 54.3067178,42.5544191 Z M61.0258366,42.5544191 C61.0258366,43.7896171 60.0213284,44.7941254 58.7861303,44.7941254 C57.5509323,44.7941254 56.5464241,43.7896171 56.5464241,42.5544191 C56.5464241,41.3192211 57.5509323,40.3147128 58.7861303,40.3147128 C60.0213284,40.3147128 61.0258366,41.3192211 61.0258366,42.5544191 Z" id="Shape"></path>
                    </g>
                </g>
            </g>
        </g>
    </g>
</svg>