<svg xmlns="http://www.w3.org/2000/svg" width="18" height="17" viewBox="0 0 18 17"><g><g><g><path fill="#3c3e3f" d="M11.652 5.774v5.19h1.103V9.01c0-.453.197-.769.48-.769.377 0 .345.47.345.766l.007 1.959 1.103-.004-.007-1.952c.003-.707-.142-1.183-.456-1.498-.246-.248-.58-.373-.993-.373-.167 0-.328.027-.48.08V5.773z"/></g><g><path fill="#3c3e3f" d="M9.24 8.503h-.623l.627-1.092zm-.243-2.877l-2.283 3.98h2.524l-.003 1.256 1.102.003.003-1.26h.553V8.504h-.55l.008-2.877z"/></g><g><path fill="#3c3e3f" d="M5.34 5.526c-.782 0-1.46.557-1.61 1.324l-.107.54 1.082.213.106-.54a.54.54 0 0 1 1.068.076c-.02.288-.213.574-.374.803-1.022 1.46-1.469 1.94-1.472 1.943l-.151.159-.004.912 3.283.01.004-1.103-1.691-.005c.238-.312.547-.731.934-1.284.288-.412.555-.893.574-1.406 0-.906-.736-1.642-1.642-1.642z"/></g><g><path fill="#3c3e3f" d="M14.99 2.415A8.191 8.191 0 0 0 9.16 0C7.278 0 5.437.65 3.977 1.832a8.277 8.277 0 0 0-2.86 4.59l1.076.243A7.17 7.17 0 0 1 4.67 2.689 7.158 7.158 0 0 1 9.16 1.102a7.15 7.15 0 0 1 7.143 7.143 7.15 7.15 0 0 1-7.143 7.142c-3.477 0-6.38-2.497-7.014-5.792l.274.224.699-.852L1.694 7.8h-.456L-.186 8.967l.699.852.485-.397a8.183 8.183 0 0 0 2.332 4.653 8.191 8.191 0 0 0 5.83 2.415 8.191 8.191 0 0 0 5.83-2.415 8.191 8.191 0 0 0 2.415-5.83 8.191 8.191 0 0 0-2.415-5.83z"/></g></g></g></svg>